<?xml version="1.0" encoding="utf-8"?>
<!-- Generator: Adobe Illustrator 27.5.0, SVG Export Plug-In . SVG Version: 6.00 Build 0)  -->
<svg version="1.1" id="Слой_1" xmlns="http://www.w3.org/2000/svg" xmlns:xlink="http://www.w3.org/1999/xlink" x="0px" y="0px"
	 viewBox="0 0 512 512" style="enable-background:new 0 0 512 512;" xml:space="preserve">
<style type="text/css">
	.st0{fill:url(#SVGID_1_);}
	.st1{fill:#454545;}
	.st2{fill:url(#SVGID_00000005948304265844319850000012809717022975740322_);}
</style>
<g>
	
		<linearGradient id="SVGID_1_" gradientUnits="userSpaceOnUse" x1="88.6842" y1="103.8143" x2="423.9424" y2="408.7747" gradientTransform="matrix(1 0 0 -1 0 512)">
		<stop  offset="0" style="stop-color:#B0B0B0"/>
		<stop  offset="0.5006" style="stop-color:#E8FEFF"/>
	</linearGradient>
	<path class="st0" d="M110.5,482.5c-44.7,0-81-36.3-81-81v-291c0-44.7,36.3-81,81-81h291c44.7,0,81,36.3,81,81v291
		c0,44.7-36.3,81-81,81L110.5,482.5L110.5,482.5z"/>
	<path d="M401.5,30c44.4,0,80.5,36.1,80.5,80.5v291c0,44.4-36.1,80.5-80.5,80.5h-291C66.1,482,30,445.9,30,401.5v-291
		C30,66.1,66.1,30,110.5,30H401.5 M401.5,29h-291C65.6,29,29,65.6,29,110.5v291c0,44.9,36.6,81.5,81.5,81.5h291
		c45,0,81.5-36.6,81.5-81.5v-291C483,65.6,446.4,29,401.5,29L401.5,29z"/>
</g>
<g>
	<path class="st1" d="M110.5,472.5c-39.2,0-71-31.9-71-71v-291c0-39.2,31.9-71,71-71h291c39.2,0,71,31.9,71,71v291
		c0,39.2-31.9,71-71,71L110.5,472.5L110.5,472.5z"/>
	<path d="M401.5,39v1c38.9,0,70.5,31.6,70.5,70.5v291c0,38.9-31.6,70.5-70.5,70.5h-291C71.6,472,40,440.4,40,401.5v-291
		C40,71.6,71.6,40,110.5,40h291L401.5,39 M401.5,39h-291C71,39,39,71,39,110.5v291C39,441,71,473,110.5,473h291
		c39.5,0,71.5-32,71.5-71.5v-291C473,71,441,39,401.5,39L401.5,39z"/>
</g>
<g>
	
		<linearGradient id="SVGID_00000176025378747817658760000016066726173701894332_" gradientUnits="userSpaceOnUse" x1="254.6209" y1="263.1084" x2="260.0472" y2="-357.0386" gradientTransform="matrix(1 0 0 -1 0 512)">
		<stop  offset="0" style="stop-color:#FFFFFF"/>
		<stop  offset="1" style="stop-color:#000000"/>
	</linearGradient>
	<path style="fill:url(#SVGID_00000176025378747817658760000016066726173701894332_);" d="M282.5,267.2c-0.2,0.9-0.4,1.2-0.5,1.6
		c-1,25.1-2.1,50.3-3,75.4c-0.3,8-0.2,16,0,24c0.1,2.2,1.1,4.7,2.6,6.3c12.7,13.6,25.4,27.1,38.5,40.3c3.8,3.9,4.9,7.9,4.3,12.9
		c-0.6,4.7-3.3,6-7.7,4.1c-13.1-5.9-26.2-11.7-39.3-17.6c-2.3-1-4.5-2.2-6.7-3.4c-1.9-1-3.3-1.1-4,1.4c-0.8,2.6-1.4,5.2-2.9,7.4
		c-2.2,3.3-4.8,6.3-7.6,9.1c-0.5,0.5-2.7,0.2-3.6-0.5c-3.6-2.6-6.2-6-7.6-10.5c-2.2-7.3-2.3-7.1-9.1-4.1
		c-11.9,5.3-23.8,10.5-35.7,15.5c-3.7,1.6-7.1,4.9-11.9,2.8c-0.7-6.7-0.6-12.9,5.3-18.6c11.9-11.5,22.9-23.9,34.4-35.8
		c2.1-2.2,2.9-4.3,2.7-7.4c-0.4-6.6,0-13.2-0.2-19.8c-0.8-19.2-1.8-38.4-2.6-57.6c-0.3-6.7-0.2-13.4-0.4-20.1c0-1.5,0-3,0-4.7
		c-1.3,0-2.3-0.2-3.2,0c-7,2-13.8,4.2-20.8,6c-4.8,1.3-9.8,2.1-14.7,3.3c-10.2,2.6-20.5,5.3-30.6,8c-13.5,3.6-27,7.1-40.5,10.6
		c-8.5,2.2-17,4.7-25.4,7.1c-4.8,1.4-9.5,3.3-14.3,4.4c-1.2,0.3-4.1-1.1-4.2-1.8c-0.4-7.3-0.5-14.6-0.3-21.8
		c0.1-1.2,2.2-2.6,3.6-3.6c33-21.1,66-42.1,99-63.3c15.4-9.9,30.7-20,45.9-30.2c1.2-0.8,2.2-2.8,2.2-4.2c0.2-15.8-0.2-31.6,0.3-47.4
		c0.5-14,3.5-27.7,10.1-40.1c2.3-4.3,5.7-8.4,9.5-11.7c6.4-5.9,16.6-5.5,22.6,0.9c3.9,4.2,7.4,9,9.9,14.2
		c5.7,12.1,8.1,25.2,8.4,38.5c0.2,13.8,0.9,27.6,0.4,41.4c-0.2,5.8,1.9,8.4,6.3,11.2c16.2,10.1,32.1,20.6,48.1,31
		c25.8,16.7,51.6,33.3,77.4,49.8c5.7,3.7,11.6,7.3,17.1,11.2c1.2,0.9,2.2,3,2.3,4.7c0.3,5.3,0.2,10.6,0.1,16
		c-0.2,5.3-2.6,6.7-7.4,4.4c-1.7-0.9-3.5-1.4-5.3-1.9c-10.2-2.9-20.3-5.8-30.5-8.5c-8.9-2.4-17.8-4.4-26.7-6.7
		c-9.4-2.5-18.6-5.3-28-7.8c-9.8-2.6-19.8-4.9-29.6-7.5c-5.2-1.3-10.2-3-15.4-4.4C290,268.8,286.2,268.1,282.5,267.2z"/>
</g>
</svg>
