<?xml version="1.0" encoding="utf-8"?>
<!-- Generator: Adobe Illustrator 27.5.0, SVG Export Plug-In . SVG Version: 6.00 Build 0)  -->
<svg version="1.1" id="Слой_1" xmlns="http://www.w3.org/2000/svg" xmlns:xlink="http://www.w3.org/1999/xlink" x="0px" y="0px"
	 viewBox="0 0 512 512" style="enable-background:new 0 0 512 512;" xml:space="preserve">
<style type="text/css">
	.st0{fill:url(#SVGID_1_);}
	.st1{fill:#E3E3E3;}
</style>
<g>
	<linearGradient id="SVGID_1_" gradientUnits="userSpaceOnUse" x1="87.2877" y1="99.0263" x2="460.3814" y2="444.1156">
		<stop  offset="1.538328e-03" style="stop-color:#88949E"/>
		<stop  offset="1" style="stop-color:#DEDEDE"/>
	</linearGradient>
	<path class="st0" d="M79.28,332.5c-42.18,0-76.5-34.32-76.5-76.5c0-42.18,34.32-76.5,76.5-76.5h355.45
		c42.18,0,76.5,34.32,76.5,76.5c0,42.18-34.32,76.5-76.5,76.5H79.28z"/>
	<path d="M434.72,180c41.91,0,76,34.09,76,76s-34.09,76-76,76H79.28c-41.91,0-76-34.09-76-76s34.09-76,76-76H434.72 M434.72,179
		H79.28c-42.46,0-77,34.54-77,77s34.54,77,77,77h355.45c42.46,0,77-34.54,77-77S477.18,179,434.72,179L434.72,179z"/>
</g>
<g>
	<path class="st1" d="M79.28,322.5c-36.67,0-66.5-29.83-66.5-66.5c0-36.67,29.83-66.5,66.5-66.5h355.45
		c36.67,0,66.5,29.83,66.5,66.5c0,36.67-29.83,66.5-66.5,66.5H79.28z"/>
	<path d="M434.72,190c36.39,0,66,29.61,66,66s-29.61,66-66,66H79.28c-36.39,0-66-29.61-66-66s29.61-66,66-66H434.72 M434.72,189
		H79.28c-37,0-67,30-67,67v0c0,37,30,67,67,67h355.45c37,0,67-30,67-67v0C501.72,219,471.73,189,434.72,189L434.72,189z"/>
</g>
</svg>
