<?xml version="1.0" encoding="utf-8"?>
<!-- Generator: Adobe Illustrator 27.5.0, SVG Export Plug-In . SVG Version: 6.00 Build 0)  -->
<svg version="1.1" id="Слой_1" xmlns="http://www.w3.org/2000/svg" xmlns:xlink="http://www.w3.org/1999/xlink" x="0px" y="0px"
	 viewBox="0 0 512 512" style="enable-background:new 0 0 512 512;" xml:space="preserve">
<style type="text/css">
	.st0{fill:url(#SVGID_1_);}
	.st1{fill:#E3E3E3;}
</style>
<g>
	
		<linearGradient id="SVGID_1_" gradientUnits="userSpaceOnUse" x1="87.2876" y1="99.0261" x2="460.3815" y2="444.1154" gradientTransform="matrix(3.731966e-07 1 -1 3.731966e-07 512.9999 -1.0001)">
		<stop  offset="1.538328e-03" style="stop-color:#88949E"/>
		<stop  offset="1" style="stop-color:#DEDEDE"/>
	</linearGradient>
	<path class="st0" d="M257,510.22c-42.18,0-76.5-34.32-76.5-76.5V78.28c0-42.18,34.32-76.5,76.5-76.5c42.18,0,76.5,34.32,76.5,76.5
		v355.45C333.5,475.91,299.18,510.22,257,510.22z"/>
	<path d="M257,2.28c41.91,0,76,34.09,76,76l0,355.45c0,41.91-34.09,76-76,76c-41.91,0-76-34.09-76-76l0-355.45
		C181,36.37,215.09,2.28,257,2.28 M257,1.28c-42.46,0-77,34.54-77,77l0,355.45c0,42.46,34.54,77,77,77c42.46,0,77-34.54,77-77
		l0-355.45C334,35.82,299.46,1.28,257,1.28L257,1.28z"/>
</g>
<g>
	<path class="st1" d="M257,500.22c-36.67,0-66.5-29.83-66.5-66.5V78.28c0-36.67,29.83-66.5,66.5-66.5c36.67,0,66.5,29.83,66.5,66.5
		v355.45C323.5,470.39,293.67,500.22,257,500.22z"/>
	<path d="M257,12.28c36.39,0,66,29.61,66,66l0,355.45c0,36.39-29.61,66-66,66c-36.39,0-66-29.61-66-66l0-355.45
		C191,41.88,220.61,12.28,257,12.28 M257,11.28L257,11.28c-37,0-67,30-67,67l0,355.45c0,37,30,67,67,67h0c37,0,67-30,67-67l0-355.45
		C324,41.27,294,11.28,257,11.28L257,11.28z"/>
</g>
</svg>
