<?xml version="1.0" encoding="utf-8"?>
<!-- Generator: Adobe Illustrator 27.5.0, SVG Export Plug-In . SVG Version: 6.00 Build 0)  -->
<svg version="1.1" id="Слой_1" xmlns="http://www.w3.org/2000/svg" xmlns:xlink="http://www.w3.org/1999/xlink" x="0px" y="0px"
	 viewBox="0 0 512 512" style="enable-background:new 0 0 512 512;" xml:space="preserve">
<style type="text/css">
	.st0{fill:url(#SVGID_1_);}
	.st1{fill:#E3E3E3;}
</style>
<g>
	
		<linearGradient id="SVGID_1_" gradientUnits="userSpaceOnUse" x1="110.2829" y1="123.4517" x2="402.2709" y2="389.0521" gradientTransform="matrix(1 0 0 -1 0 512)">
		<stop  offset="1.538328e-03" style="stop-color:#88949E"/>
		<stop  offset="1" style="stop-color:#DEDEDE"/>
	</linearGradient>
	<path class="st0" d="M256,505.5c-66.7,0-129.3-26-176.4-73.1C32.4,385.3,6.5,322.7,6.5,256s26-129.3,73.1-176.4
		C126.7,32.4,189.3,6.5,256,6.5s129.3,26,176.4,73.1c47.1,47.1,73.1,109.8,73.1,176.4s-26,129.3-73.1,176.4
		C385.3,479.6,322.7,505.5,256,505.5z"/>
	<path d="M256,7c33.6,0,66.2,6.6,96.9,19.6c29.7,12.5,56.3,30.5,79.2,53.4c22.9,22.9,40.8,49.5,53.4,79.2
		c13,30.7,19.6,63.3,19.6,96.9s-6.6,66.2-19.6,96.9c-12.5,29.7-30.5,56.3-53.4,79.2c-22.9,22.9-49.5,40.8-79.2,53.4
		c-30.7,13-63.3,19.6-96.9,19.6s-66.2-6.6-96.9-19.6c-29.7-12.5-56.3-30.5-79.2-53.4c-22.9-22.9-40.8-49.5-53.4-79.2
		C13.6,322.2,7,289.6,7,256s6.6-66.2,19.6-96.9c12.5-29.7,30.5-56.3,53.4-79.2c22.9-22.9,49.5-40.8,79.2-53.4
		C189.8,13.6,222.4,7,256,7 M256,6L256,6C117.9,6,6,117.9,6,256l0,0c0,138.1,111.9,250,250,250l0,0c138.1,0,250-111.9,250-250l0,0
		C506,117.9,394.1,6,256,6L256,6z"/>
</g>
<g>
	<path class="st1" d="M256,494.5c-63.7,0-123.6-24.8-168.6-69.9S17.5,319.7,17.5,256S42.3,132.4,87.4,87.4S192.3,17.5,256,17.5
		s123.6,24.8,168.6,69.9s69.9,104.9,69.9,168.6s-24.8,123.6-69.9,168.6S319.7,494.5,256,494.5z"/>
	<path d="M256,18c32.1,0,63.3,6.3,92.6,18.7c28.3,12,53.8,29.2,75.7,51s39,47.3,51,75.7c12.4,29.3,18.7,60.5,18.7,92.6
		c0,32.1-6.3,63.3-18.7,92.6c-12,28.3-29.2,53.8-51,75.7s-47.3,39-75.7,51C319.3,487.7,288.1,494,256,494
		c-32.1,0-63.3-6.3-92.6-18.7c-28.3-12-53.8-29.2-75.7-51s-39-47.3-51-75.7C24.3,319.3,18,288.1,18,256s6.3-63.3,18.7-92.6
		c12-28.3,29.2-53.8,51-75.7s47.3-39,75.7-51C192.7,24.3,223.9,18,256,18 M256,17L256,17C124,17,17,124,17,256l0,0
		c0,132,107,239,239,239l0,0c132,0,239-107,239-239l0,0C495,124,388,17,256,17L256,17z"/>
</g>
</svg>
