<?xml version="1.0" encoding="utf-8"?>
<!-- Generator: Adobe Illustrator 27.5.0, SVG Export Plug-In . SVG Version: 6.00 Build 0)  -->
<svg version="1.1" id="Слой_1" xmlns="http://www.w3.org/2000/svg" xmlns:xlink="http://www.w3.org/1999/xlink" x="0px" y="0px"
	 viewBox="0 0 512 512" style="enable-background:new 0 0 512 512;" xml:space="preserve">
<style type="text/css">
	.st0{fill:url(#SVGID_1_);}
	.st1{fill:#00B6DF;}
	.st2{fill:#FFFBFF;}
</style>
<g>
	<linearGradient id="SVGID_1_" gradientUnits="userSpaceOnUse" x1="88.689" y1="408.191" x2="423.9472" y2="103.2307">
		<stop  offset="0" style="stop-color:#0096FF"/>
		<stop  offset="0.5006" style="stop-color:#E8FEFF"/>
	</linearGradient>
	<path class="st0" d="M110.51,482.5c-44.67,0-81.01-36.34-81.01-81.01V110.51c0-44.67,36.34-81.01,81.01-81.01h290.97
		c44.67,0,81.01,36.34,81.01,81.01v290.97c0,44.67-36.34,81.01-81.01,81.01H110.51z"/>
	<path d="M401.49,30C445.88,30,482,66.12,482,110.51v290.97c0,44.39-36.12,80.51-80.51,80.51H110.51C66.12,482,30,445.88,30,401.49
		V110.51C30,66.12,66.12,30,110.51,30H401.49 M401.49,29H110.51C65.57,29,29,65.57,29,110.51v290.97C29,446.43,65.57,483,110.51,483
		h290.97c44.95,0,81.51-36.57,81.51-81.51V110.51C483,65.57,446.43,29,401.49,29L401.49,29z"/>
</g>
<g>
	<path class="st1" d="M110.51,472.5c-39.16,0-71.01-31.86-71.01-71.01V110.51c0-39.16,31.86-71.01,71.01-71.01h290.97
		c39.16,0,71.01,31.86,71.01,71.01v290.97c0,39.16-31.86,71.01-71.01,71.01H110.51z"/>
	<path d="M401.49,39v1C440.37,40,472,71.63,472,110.51l0,290.97c0,38.88-31.63,70.51-70.51,70.51l-290.97,0
		C71.63,472,40,440.37,40,401.49l0-290.97C40,71.63,71.63,40,110.51,40l290.97,0V39 M401.49,39l-290.97,0
		C71.02,39,39,71.02,39,110.51l0,290.97c0,39.5,32.02,71.51,71.51,71.51l290.97,0c39.5,0,71.51-32.02,71.51-71.51l0-290.97
		C473,71.02,440.98,39,401.49,39L401.49,39z"/>
</g>
<g>
	<g>
		<path class="st2" d="M379.62,342.95c-0.84,0-1.63-0.33-2.23-0.92l-14.21-14.21c-1.05-1.05-1.22-2.68-0.41-3.96
			c12.91-20.26,19.73-43.73,19.73-67.86c0-23.88-6.69-47.13-19.35-67.26c-0.8-1.28-0.63-2.9,0.42-3.95l14.23-14.23
			c0.6-0.6,1.39-0.92,2.23-0.92c1.06,0,2.04,0.52,2.63,1.4c16.91,25.15,25.84,54.53,25.84,84.96c0,30.68-9.08,60.27-26.26,85.56
			C381.65,342.43,380.67,342.95,379.62,342.95L379.62,342.95z"/>
		<path d="M380.02,170.14c0.89,0,1.72,0.44,2.22,1.18C399.09,196.39,408,225.67,408,256c0,30.58-9.05,60.07-26.17,85.28
			c-0.5,0.73-1.32,1.17-2.21,1.17c-0.71,0-1.37-0.28-1.88-0.78l-14.21-14.21c-0.89-0.89-1.03-2.26-0.34-3.34
			C376.15,303.78,383,280.23,383,256c0-23.97-6.72-47.32-19.43-67.53c-0.68-1.08-0.54-2.45,0.35-3.33l14.23-14.23
			C378.65,170.42,379.31,170.14,380.02,170.14 M380.02,169.14c-0.93,0-1.86,0.35-2.58,1.07l-14.23,14.23
			c-1.22,1.22-1.4,3.11-0.49,4.57C374.93,208.41,382,231.38,382,256c0,24.87-7.21,48.06-19.65,67.59c-0.93,1.46-0.75,3.36,0.48,4.58
			l14.21,14.21c0.72,0.72,1.66,1.07,2.58,1.07c1.16,0,2.32-0.55,3.04-1.61C399.28,317.37,409,287.82,409,256
			c0-31.56-9.56-60.88-25.93-85.24C382.35,169.69,381.19,169.14,380.02,169.14L380.02,169.14z"/>
	</g>
	<g>
		<path class="st2" d="M326.21,150.13c-0.62,0-1.23-0.18-1.75-0.52c-20.4-13.16-44.08-20.11-68.46-20.11
			c-24.13,0-47.6,6.82-67.86,19.73c-0.52,0.33-1.13,0.51-1.74,0.51l0,0c-0.84,0-1.63-0.33-2.22-0.92l-14.21-14.21
			c-0.67-0.67-1-1.59-0.91-2.53c0.09-0.94,0.59-1.79,1.38-2.32c25.29-17.18,54.88-26.26,85.56-26.26c30.94,0,60.74,9.22,86.17,26.67
			c0.78,0.54,1.28,1.38,1.37,2.32c0.09,0.94-0.25,1.86-0.91,2.52l-14.19,14.19C327.84,149.8,327.05,150.13,326.21,150.13z"/>
		<path d="M256,104c30.84,0,60.54,9.19,85.89,26.59c0.66,0.45,1.08,1.16,1.15,1.96c0.07,0.79-0.21,1.56-0.77,2.12l-14.19,14.19
			c-0.5,0.5-1.16,0.77-1.87,0.77c-0.52,0-1.04-0.15-1.48-0.44C304.24,135.98,280.48,129,256,129c-24.23,0-47.78,6.85-68.13,19.81
			c-0.44,0.28-0.95,0.43-1.47,0.43c-0.71,0-1.37-0.27-1.87-0.77l-14.21-14.21c-0.56-0.56-0.84-1.34-0.77-2.13
			c0.08-0.8,0.5-1.51,1.16-1.96C195.93,113.05,225.42,104,256,104 M256,103c-31.82,0-61.37,9.72-85.85,26.35
			c-1.9,1.29-2.16,4-0.54,5.62l14.21,14.21c0.7,0.7,1.63,1.06,2.58,1.06c0.69,0,1.39-0.19,2.01-0.59
			C207.94,137.21,231.13,130,256,130c25.12,0,48.53,7.36,68.19,20.03c0.62,0.4,1.33,0.6,2.03,0.6c0.94,0,1.87-0.36,2.57-1.06
			l14.19-14.19c1.62-1.62,1.37-4.32-0.52-5.61C317.86,112.88,288.08,103,256,103L256,103z"/>
	</g>
	<g>
		<path class="st2" d="M132.79,343.55c-1.05,0-2.03-0.51-2.62-1.38c-17.45-25.43-26.67-55.23-26.67-86.17
			c0-30.68,9.08-60.27,26.26-85.56c0.59-0.87,1.57-1.39,2.63-1.39c0.84,0,1.63,0.33,2.23,0.93l14.21,14.21
			c1.05,1.05,1.22,2.68,0.41,3.96C136.32,208.4,129.5,231.87,129.5,256c0,24.38,6.95,48.05,20.11,68.46
			c0.83,1.28,0.66,2.92-0.4,3.98l-14.19,14.19C134.43,343.22,133.63,343.55,132.79,343.55
			C132.79,343.55,132.79,343.55,132.79,343.55z"/>
		<path d="M132.39,169.55c0.71,0,1.37,0.28,1.88,0.78l14.21,14.21c0.89,0.89,1.03,2.26,0.34,3.34C135.85,208.22,129,231.77,129,256
			c0,24.48,6.98,48.24,20.19,68.73c0.7,1.08,0.56,2.46-0.33,3.35l-14.19,14.19c-0.5,0.5-1.17,0.78-1.88,0.78
			c-0.88,0-1.71-0.43-2.21-1.16C113.19,316.54,104,286.84,104,256c0-30.58,9.05-60.07,26.17-85.28
			C130.67,169.98,131.5,169.55,132.39,169.55 M132.39,168.55c-1.16,0-2.32,0.55-3.04,1.61C112.72,194.63,103,224.18,103,256
			c0,32.08,9.88,61.86,26.76,86.45c0.72,1.05,1.87,1.6,3.03,1.6c0.93,0,1.86-0.35,2.58-1.07l14.19-14.19
			c1.23-1.23,1.41-3.14,0.46-4.6C137.36,304.53,130,281.12,130,256c0-24.87,7.21-48.06,19.65-67.59c0.93-1.46,0.75-3.36-0.48-4.58
			l-14.21-14.21C134.25,168.9,133.31,168.55,132.39,168.55L132.39,168.55z"/>
	</g>
	<g>
		<path class="st2" d="M256,408.5c-30.43,0-59.81-8.94-84.96-25.84c-0.79-0.53-1.29-1.38-1.39-2.32c-0.09-0.94,0.24-1.87,0.91-2.54
			l14.23-14.23c0.59-0.59,1.38-0.92,2.22-0.92c0.61,0,1.21,0.17,1.73,0.5c20.13,12.66,43.38,19.35,67.26,19.35
			c24.13,0,47.6-6.82,67.86-19.73c0.52-0.33,1.13-0.51,1.74-0.51c0.84,0,1.63,0.33,2.22,0.92l14.21,14.21
			c0.67,0.67,1,1.59,0.91,2.53c-0.09,0.94-0.59,1.79-1.38,2.32C316.27,399.42,286.68,408.5,256,408.5z"/>
		<path d="M325.6,362.76c0.71,0,1.37,0.27,1.87,0.77l14.21,14.21c0.56,0.56,0.84,1.34,0.77,2.13c-0.08,0.8-0.5,1.51-1.16,1.96
			C316.07,398.95,286.58,408,256,408c-30.33,0-59.61-8.91-84.68-25.76c-0.66-0.45-1.09-1.16-1.17-1.96
			c-0.08-0.79,0.2-1.57,0.77-2.14l14.23-14.23c0.5-0.5,1.16-0.77,1.87-0.77c0.51,0,1.02,0.15,1.46,0.42
			C208.68,376.28,232.03,383,256,383c24.23,0,47.78-6.85,68.13-19.81C324.57,362.91,325.08,362.76,325.6,362.76 M325.6,361.76
			c-0.69,0-1.39,0.19-2.01,0.59C304.06,374.79,280.87,382,256,382c-24.62,0-47.59-7.07-66.99-19.28c-0.61-0.39-1.31-0.58-1.99-0.58
			c-0.94,0-1.87,0.36-2.58,1.06l-14.23,14.23c-1.63,1.63-1.36,4.35,0.55,5.63C195.12,399.44,224.44,409,256,409
			c31.82,0,61.37-9.72,85.85-26.35c1.9-1.29,2.16-4,0.54-5.62l-14.21-14.21C327.47,362.12,326.54,361.76,325.6,361.76L325.6,361.76z
			"/>
	</g>
</g>
</svg>
