<?xml version="1.0" encoding="utf-8"?>
<!-- Generator: Adobe Illustrator 27.5.0, SVG Export Plug-In . SVG Version: 6.00 Build 0)  -->
<svg version="1.1" id="Слой_1" xmlns="http://www.w3.org/2000/svg" xmlns:xlink="http://www.w3.org/1999/xlink" x="0px" y="0px"
	 viewBox="0 0 512 512" style="enable-background:new 0 0 512 512;" xml:space="preserve">
<style type="text/css">
	.st0{fill:url(#SVGID_1_);}
	.st1{fill:#454545;}
	.st2{fill:url(#SVGID_00000045605140793730772740000006633316936534201226_);}
</style>
<g>
	<linearGradient id="SVGID_1_" gradientUnits="userSpaceOnUse" x1="88.6889" y1="408.1909" x2="423.9471" y2="103.2305">
		<stop  offset="0" style="stop-color:#B0B0B0"/>
		<stop  offset="0.5006" style="stop-color:#E8FEFF"/>
	</linearGradient>
	<path class="st0" d="M110.5,482.5c-44.7,0-81-36.3-81-81v-291c0-44.7,36.3-81,81-81h291c44.7,0,81,36.3,81,81v291
		c0,44.7-36.3,81-81,81H110.5L110.5,482.5z"/>
	<path d="M401.5,30c44.4,0,80.5,36.1,80.5,80.5v291c0,44.4-36.1,80.5-80.5,80.5h-291C66.1,482,30,445.9,30,401.5v-291
		C30,66.1,66.1,30,110.5,30H401.5 M401.5,29h-291C65.6,29,29,65.6,29,110.5v291c0,44.9,36.6,81.5,81.5,81.5h291
		c45,0,81.5-36.6,81.5-81.5v-291C483,65.6,446.4,29,401.5,29L401.5,29z"/>
</g>
<g>
	<path class="st1" d="M110.5,472.5c-39.2,0-71-31.9-71-71v-291c0-39.2,31.9-71,71-71h291c39.2,0,71,31.9,71,71v291
		c0,39.2-31.9,71-71,71H110.5L110.5,472.5z"/>
	<path d="M401.5,39v1c38.9,0,70.5,31.6,70.5,70.5v291c0,38.9-31.6,70.5-70.5,70.5h-291C71.6,472,40,440.4,40,401.5v-291
		C40,71.6,71.6,40,110.5,40h291V39 M401.5,39h-291C71,39,39,71,39,110.5v291C39,441,71,473,110.5,473h291c39.5,0,71.5-32,71.5-71.5
		v-291C473,71,441,39,401.5,39L401.5,39z"/>
</g>
<path d="M-192.5,198.5c2.8,0,5.7,0,8.5,0C-186.8,198.5-189.7,198.5-192.5,198.5z"/>
<linearGradient id="SVGID_00000183952890768004256310000000461577449485643443_" gradientUnits="userSpaceOnUse" x1="255.6803" y1="267.242" x2="232.7016" y2="785.0292">
	<stop  offset="0" style="stop-color:#FFFFFF"/>
	<stop  offset="1" style="stop-color:#000000"/>
</linearGradient>
<path style="fill:url(#SVGID_00000183952890768004256310000000461577449485643443_);" d="M389.8,255.8c0,5.1,0.5,10.2-0.1,15.3
	c-0.7,5.8-2.1,11.6-3.5,17.3c-5.8,23.9-18,44.2-35.3,61.6c-16.4,16.4-35.9,27.3-58.1,33.8c-14.2,4.1-28.6,4.7-43.2,4.2
	c-7.2-0.3-14.3-0.5-21.3-2.1c-27.5-6.3-51.2-19.2-70.4-39.8c-9.1-9.8-16.5-20.8-22.3-32.9c-4.4-9.4-8.4-19-10.1-29.3
	c-1.5-9-3.3-18.1-3.3-27.1c-0.1-26.6,7.4-51.2,22-73.5c7.3-11.2,15.9-21.3,26.3-29.8c9.4-7.6,19.5-14,30.6-19
	c7-3.2,14.3-5.6,21.8-7.5c10.3-2.6,20.6-4.2,31.1-4.1c9.6,0.1,19.3,1.1,28.9,2.6c10.8,1.7,21,5.6,30.9,10.1
	c16,7.3,30.1,17.2,41.6,30.4c6.4,7.3,11.9,15.4,17.3,23.4c5.2,7.7,8.3,16.5,11.2,25.3c1.9,6,2.4,12.5,4.4,18.5
	C390.5,240.6,389.4,248.3,389.8,255.8z M284.2,309.4c-1.1,2.1-1.7,3.6-2.6,5c-2.3,3.7-4.5,7.5-7.2,10.9c-1.6,2.1-4.1,3.6-7,3.3
	c-0.6-0.1-1.4-0.3-1.6-0.7c-0.9-2-2.1-4.1-2.2-6.3c-0.3-6.1-0.2-12.3-0.2-18.4c0-0.7,0.5-1.4,0.8-2.1c0.3-0.7,0.9-1.3,1-2.1
	c0.3-2.5-0.3-5.4,0.8-7.4c1.2-2.1,0.6-4,1.1-5.9c0.1-0.4-0.1-1,0.1-1.2c2.5-2.4,1.2-5.6,2-8.4c0-0.2,0.1-0.3,0.1-0.5
	c1.1-5.6,2.5-11.2,3.4-16.9c1.2-7.9,1.4-15.7-1.8-23.4c-2.2-5.3-5.3-9.8-9.7-13.3c-1.3-1-2.9-2-4.5-2.3c-6.6-0.9-12.9-0.2-18.6,3.9
	c-6.6,4.8-11.8,10.8-17.1,16.8c1.8,1.8,3.5,3.5,5.1,5.3c1.2,1.4,2.2,1.3,3.7,0.3c3-2.1,6.2-3.8,10.1-4c2-0.1,2.8,0.5,2.9,2.7
	c0.2,9.7-2.6,18.9-4.4,28.2c-1.4,7-3.4,13.8-4.9,20.7c-1.2,5.5-2.6,11-3.2,16.6c-0.7,6.4-1.5,12.9,1,19.3c3,7.7,9.5,10.7,16.5,11.9
	c6.7,1.1,13.6,1.2,20.3-1.4c5.5-2.1,10.8-4.4,14.2-9.3c3.3-4.6,6.2-9.5,9.1-14.3c0.3-0.4,0.2-1.6-0.2-1.8
	C289,312.9,286.8,311.3,284.2,309.4z M274.3,187.8c1-10.7-7.3-19-18.3-18.4c-6.3,0.3-11.8,1.9-15.2,7.8c-5.9,10.2-3.8,21.7,5.8,28.3
	c2.2,1.5,5.3,2.6,8,2.5C264.8,207.3,274,201.5,274.3,187.8z"/>
</svg>
