<?xml version="1.0" encoding="utf-8"?>
<!-- Generator: Adobe Illustrator 27.5.0, SVG Export Plug-In . SVG Version: 6.00 Build 0)  -->
<svg version="1.1" id="Слой_1" xmlns="http://www.w3.org/2000/svg" xmlns:xlink="http://www.w3.org/1999/xlink" x="0px" y="0px"
	 viewBox="0 0 512 512" style="enable-background:new 0 0 512 512;" xml:space="preserve">
<style type="text/css">
	.st0{fill:url(#SVGID_1_);}
	.st1{fill:#1E2426;}
</style>
<g>
	<linearGradient id="SVGID_1_" gradientUnits="userSpaceOnUse" x1="123.7222" y1="376.324" x2="388.7809" y2="135.2191">
		<stop  offset="1.538328e-03" style="stop-color:#373C40"/>
		<stop  offset="0.5006" style="stop-color:#768182"/>
	</linearGradient>
	<path class="st0" d="M256,482.5c-60.5,0-117.38-23.56-160.16-66.34C53.06,373.38,29.5,316.5,29.5,256
		c0-60.5,23.56-117.38,66.34-160.16S195.5,29.5,256,29.5c60.5,0,117.38,23.56,160.16,66.34C458.94,138.62,482.5,195.5,482.5,256
		c0,60.5-23.56,117.38-66.34,160.16C373.38,458.94,316.5,482.5,256,482.5z"/>
	<path d="M256,30c30.51,0,60.11,5.98,87.97,17.76c26.91,11.38,51.08,27.68,71.84,48.43c20.76,20.76,37.05,44.93,48.43,71.84
		C476.02,195.89,482,225.49,482,256c0,30.51-5.98,60.11-17.76,87.97c-11.38,26.91-27.68,51.08-48.43,71.84
		c-20.76,20.76-44.93,37.05-71.84,48.43C316.11,476.02,286.51,482,256,482c-30.51,0-60.11-5.98-87.97-17.76
		c-26.91-11.38-51.08-27.68-71.84-48.43c-20.76-20.76-37.05-44.93-48.43-71.84C35.98,316.11,30,286.51,30,256
		c0-30.51,5.98-60.11,17.76-87.97c11.38-26.91,27.68-51.08,48.43-71.84c20.76-20.76,44.93-37.05,71.84-48.43
		C195.89,35.98,225.49,30,256,30 M256,29L256,29C130.63,29,29,130.63,29,256v0c0,125.37,101.63,227,227,227h0
		c125.37,0,227-101.63,227-227v0C483,130.63,381.37,29,256,29L256,29z"/>
</g>
<g>
	<path class="st1" d="M256,472.5c-57.83,0-112.2-22.52-153.09-63.41C62.02,368.2,39.5,313.83,39.5,256s22.52-112.2,63.41-153.09
		C143.8,62.02,198.17,39.5,256,39.5s112.2,22.52,153.09,63.41C449.98,143.8,472.5,198.17,472.5,256s-22.52,112.2-63.41,153.09
		S313.83,472.5,256,472.5z"/>
	<path d="M256,39v1c29.16,0,57.45,5.71,84.08,16.97c25.72,10.88,48.82,26.45,68.66,46.29c19.84,19.84,35.41,42.94,46.29,68.66
		C466.29,198.55,472,226.84,472,256c0,29.16-5.71,57.45-16.97,84.08c-10.88,25.72-26.45,48.82-46.29,68.66
		c-19.84,19.84-42.94,35.41-68.66,46.29C313.45,466.29,285.16,472,256,472h0c-29.16,0-57.44-5.71-84.07-16.97
		c-25.72-10.88-48.82-26.45-68.66-46.29c-19.84-19.84-35.41-42.94-46.29-68.66C45.71,313.44,40,285.16,40,256
		c0-29.16,5.71-57.45,16.97-84.08c10.88-25.72,26.45-48.82,46.29-68.66c19.84-19.84,42.94-35.41,68.66-46.29
		C198.55,45.71,226.84,40,256,40V39 M256,39L256,39C136.15,39,39,136.15,39,256v0c0,119.85,97.15,217,217,217h0
		c119.85,0,217-97.15,217-217v0C473,136.15,375.85,39,256,39L256,39z"/>
</g>
</svg>
