<?xml version="1.0" encoding="utf-8"?>
<!-- Generator: Adobe Illustrator 27.5.0, SVG Export Plug-In . SVG Version: 6.00 Build 0)  -->
<svg version="1.1" id="Слой_1" xmlns="http://www.w3.org/2000/svg" xmlns:xlink="http://www.w3.org/1999/xlink" x="0px" y="0px"
	 viewBox="0 0 512 512" style="enable-background:new 0 0 512 512;" xml:space="preserve">
<style type="text/css">
	.st0{fill:url(#SVGID_1_);}
	.st1{fill:#350000;}
	.st2{fill:#FFFFFF;}
	.st3{fill:url(#SVGID_00000095317332794558169460000008345597758904999335_);}
</style>
<g>
	
		<linearGradient id="SVGID_1_" gradientUnits="userSpaceOnUse" x1="88.6842" y1="103.8143" x2="423.9424" y2="408.7747" gradientTransform="matrix(1 0 0 -1 0 512)">
		<stop  offset="1.538328e-03" style="stop-color:#994547"/>
		<stop  offset="0.5006" style="stop-color:#768182"/>
	</linearGradient>
	<path class="st0" d="M110.5,482.5c-44.7,0-81-36.3-81-81v-291c0-44.7,36.3-81,81-81h291c44.7,0,81,36.3,81,81v291
		c0,44.7-36.3,81-81,81L110.5,482.5L110.5,482.5z"/>
	<path d="M401.5,30c44.4,0,80.5,36.1,80.5,80.5v291c0,44.4-36.1,80.5-80.5,80.5h-291C66.1,482,30,445.9,30,401.5v-291
		C30,66.1,66.1,30,110.5,30H401.5 M401.5,29h-291C65.6,29,29,65.6,29,110.5v291c0,44.9,36.6,81.5,81.5,81.5h291
		c45,0,81.5-36.6,81.5-81.5v-291C483,65.6,446.4,29,401.5,29L401.5,29z"/>
</g>
<g>
	<path class="st1" d="M110.5,472.5c-39.2,0-71-31.9-71-71v-291c0-39.2,31.9-71,71-71h291c39.2,0,71,31.9,71,71v291
		c0,39.2-31.9,71-71,71L110.5,472.5L110.5,472.5z"/>
	<path class="st1" d="M401.5,39v1c38.9,0,70.5,31.6,70.5,70.5v291c0,38.9-31.6,70.5-70.5,70.5h-291C71.6,472,40,440.4,40,401.5v-291
		C40,71.6,71.6,40,110.5,40h291L401.5,39 M401.5,39h-291C71,39,39,71,39,110.5v291C39,441,71,473,110.5,473h291
		c39.5,0,71.5-32,71.5-71.5v-291C473,71,441,39,401.5,39L401.5,39z"/>
</g>
<g>
	<path class="st2" d="M317.1,340.6c-3-16-11.4-28.8-24.4-38.6c-0.9-0.7-1.3-1.4-1.3-2.5c0-25.2,0-50.4,0-75.6c0-29.4,0-58.8,0-88.3
		c0-2.7-0.2-5.4-0.7-8.1c-3.8-19.8-22.5-32.2-41.6-29.1c-14.3,2.3-26.4,13.5-29.6,27.7c-0.8,3.5-1,7.1-0.9,10.7c0,0.6,0,1.3-0.1,2.1
		c-3,0-5.8,0-8.6,0c0,1.7,0,3.1,0,4.8c2.9,0,5.8,0,8.6,0c0,1.6,0,2.9,0,4.5c-2.9,0-5.8,0-8.6,0c0,1.7,0,3.1,0,4.7
		c2.9,0.1,5.8,0,8.6,0.1c0,1.6,0,3,0,4.5c-2.9,0-5.8,0-8.6,0c0,1.7,0,3.1,0,4.7c2.9,0.1,5.8,0,8.6,0.1c0,1.6,0,3,0,4.5
		c-2.9,0-5.8,0-8.6,0c0,1.7,0,3.1,0,4.7c2.9,0.1,5.8,0,8.6,0.1c0,1.6,0,3,0,4.5c-2.9,0-5.8,0-8.6,0c0,1.7,0,3.1,0,4.7
		c2.9,0.1,5.8,0,8.6,0.1c0,1.6,0,3,0,4.5c-2.9,0-5.8,0-8.6,0c0,1.7,0,3.1,0,4.7c2.9,0.1,5.8,0,8.6,0.1c0,1.6,0,3,0,4.5
		c-2.9,0-5.8,0-8.6,0c0,1.7,0,3.1,0,4.7c2.9,0.1,5.8,0,8.6,0.1c0,1.6,0,3,0,4.5c-2.9,0-5.8,0-8.7,0c0,1.7-0.1,3.1,0.1,4.7
		c1.5,0,2.9,0,4.3,0c1.4,0,2.9-0.1,4.3,0.1c0,1.5,0,2.9,0,4.5c-2.9,0-5.8,0-8.7,0c0,1.7-0.2,3.1,0.1,4.7c2.9,0,5.7,0,8.6,0
		c0,1.6,0,3,0,4.5c-1.5,0-2.9,0-4.3,0c-1.4,0-2.9-0.2-4.4,0.2c0,1.5-0.2,3,0.1,4.6c2.9,0,5.7,0,8.6,0c0,1.6,0,3,0,4.5
		c-2.9,0.1-5.8,0-8.6,0.1c-0.3,1.9-0.2,3.6,0.2,4.7c2.7,0,5.5,0,8.5,0c0.1,1.6,0.2,3-0.1,4.5c-1.5,0-2.9,0-4.3,0
		c-1.4,0-2.9-0.1-4.2,0.1c-0.3,1.9-0.2,3.6,0.2,4.7c2.7,0,5.5,0,8.4,0c0.1,1.6,0.2,3-0.1,4.5c-2.9,0-5.7,0-8.6,0
		c-0.1,1.6-0.2,3.1,0,4.8c2.9,0,5.7,0,8.6,0c0.1,1.6,0.2,3-0.1,4.5c-2.9,0-5.7,0-8.5,0c-0.4,1.5-0.3,3.7,0.1,4.8c2.7,0,5.5,0,8.4,0
		c0.1,1.6,0.2,3-0.1,4.5c-2.9,0-5.7,0-8.6,0c0,1.6,0,3.1,0,4.7c2.9,0,5.8,0,8.6,0c0,1.6,0,2.9,0,4.5c-2.9,0-5.7,0-8.6,0
		c0,1.6,0,3.1,0,4.7c2.9,0,5.7,0,8.6,0c0,0.6,0.1,1,0.1,1.3c0,5.3-0.1,10.7-0.1,16c0,0.8-0.4,1.2-1,1.7c-7.3,5.4-13.3,12.1-17.7,20
		c-8.1,14.7-10.3,30.3-6.2,46.6c3.8,15.3,12.4,27.6,25.3,36.6c13.7,9.5,28.9,13,45.4,10.6c13.4-1.9,25.2-7.6,34.8-17.2
		C315.2,382.4,321.3,363,317.1,340.6z M304.6,387.6c-9.1,13-21.5,21.2-37,24.6c-22.3,4.9-45.8-3.7-59.9-21.6
		c-6.7-8.5-10.9-18-12.4-28.7c-2.5-17.9,2.1-34,13.6-48c3.3-4,7.1-7.5,11.4-10.4c1-0.7,1.3-1.4,1.3-2.5c0-31.1,0-62.3,0-93.4
		c0-24.2,0-48.4,0-72.6c0-8.3,2.5-15.8,7.9-22.1c6.6-7.8,15.2-11.8,25.4-11.8c16.8-0.2,31,12.2,33.3,28.9c0.3,1.9,0.3,3.9,0.3,5.9
		c0,27,0,54,0,80.9c0,22.9,0,45.7,0,68.6c0,5.4,0.1,10.8,0.1,16.2c0,1,0.3,1.5,1.1,2.1c9.4,6.6,16.4,15.2,20.9,25.7
		c3,7,4.7,14.4,4.9,22.1C315.8,364.5,312.2,376.7,304.6,387.6z"/>
	
		<linearGradient id="SVGID_00000098218669577161400650000014323033911099484825_" gradientUnits="userSpaceOnUse" x1="255.0424" y1="357.7872" x2="255.0424" y2="114.977">
		<stop  offset="1.538328e-03" style="stop-color:#FFF4F4"/>
		<stop  offset="0.8223" style="stop-color:#DF000C"/>
	</linearGradient>
	<path style="fill:url(#SVGID_00000098218669577161400650000014323033911099484825_);" d="M275,231.1c0,30.6,0,61.2,0,91.8
		c0,1.7,0.4,2.8,1.8,3.9c7.6,6.1,11.8,14.1,12.8,23.8c1.8,17.7-10.6,34.9-29.9,37.6c-18.9,2.6-36.7-10.9-39-29.9
		c-1.6-13,3-23.7,13.1-32c0.9-0.7,1.3-1.4,1.3-2.6c0-33.8,0-67.6,0-101.4c0-27.4,0-54.9,0-82.3c0-5.8,1.9-10.9,6.2-14.8
		c6.2-5.7,13.5-7.2,21.3-3.9c7.9,3.3,12.2,9.5,12.2,18.1c0.2,19.3,0.1,38.6,0.1,57.9C274.9,208.4,274.9,219.8,275,231.1
		C274.9,231.1,275,231.1,275,231.1z"/>
</g>
</svg>
