<?xml version="1.0" encoding="utf-8"?>
<!-- Generator: Adobe Illustrator 27.5.0, SVG Export Plug-In . SVG Version: 6.00 Build 0)  -->
<svg version="1.1" id="Слой_1" xmlns="http://www.w3.org/2000/svg" xmlns:xlink="http://www.w3.org/1999/xlink" x="0px" y="0px"
	 viewBox="0 0 512 512" style="enable-background:new 0 0 512 512;" xml:space="preserve">
<style type="text/css">
	.st0{fill:#FFFFFF;}
</style>
<path class="st0" d="M241.9,297c-47.1,47.1-94.4,94.4-142.7,142.8c-6-6.5-12-13.1-18.3-19.6c-7.7-8-7.8-7.9-0.1-15.6
	c43.5-43.5,87-87,130.5-130.4c1.4-1.4,3-2.6,4.8-4.1c-19.2-28.6-26-59.5-19.5-92.5c6.3-31.9,23.4-58,50.6-76
	c48.8-32.3,111.9-26.8,153.1,16c45,46.7,42.1,110.8,11.6,153.1C371.7,326.3,296.9,336.5,241.9,297z M228.1,197.4
	c-2.2,44.8,31.2,88.8,85.1,90c42.1,1,85.6-29.6,87.3-85.6c1.3-42.4-31.4-85-84.4-86.9C272.1,113.4,230.1,147.9,228.1,197.4z"/>
<path class="st0" d="M314.6,189.8c18,0,36,0.1,53.9-0.1c4.2,0,6.2,1,5.8,5.5c-0.3,3.8-0.3,7.7,0,11.5c0.3,4.1-1.1,5.4-5.3,5.4
	c-27-0.2-53.9-0.1-80.9-0.1c-9.7,0-19.3-0.2-29,0.1c-4,0.1-5.3-1.3-5.1-5.2c0.2-4,0.2-8,0-12c-0.2-3.9,1.2-5.2,5.2-5.2
	C277.6,189.9,296.1,189.8,314.6,189.8z"/>
</svg>
