<?xml version="1.0" encoding="utf-8"?>
<!-- Generator: Adobe Illustrator 27.5.0, SVG Export Plug-In . SVG Version: 6.00 Build 0)  -->
<svg version="1.1" id="Слой_1" xmlns="http://www.w3.org/2000/svg" xmlns:xlink="http://www.w3.org/1999/xlink" x="0px" y="0px"
	 viewBox="0 0 512 512" style="enable-background:new 0 0 512 512;" xml:space="preserve">
<style type="text/css">
	.st0{fill:#FFFFFF;}
</style>
<path class="st0" d="M242.2,297.1c-47.3,47.3-94.4,94.4-141.9,141.9c-1.2-1-2.5-1.9-3.6-3c-6.7-6.7-13.3-13.6-20.2-20.1
	c-3-2.8-2.7-4.5,0.1-7.2c28.3-28.1,56.4-56.3,84.6-84.4c16.9-16.8,33.7-33.7,50.6-50.5c1.3-1.3,2.9-2.2,4.1-3.2
	c-39.4-61.7-22.3-132.2,31-168.7c47.9-32.8,111.7-27.3,153.5,15.9c44.3,45.9,46.6,118.1-0.2,166.9
	C361.7,324.7,296.5,335.7,242.2,297.1z M314.5,114.7c-46,0.1-86.1,35.7-86.5,85.8c-0.4,46.8,35.2,86.6,86,86.8
	c48,0.2,86.3-35.7,86.6-86.3C400.8,153.8,364.3,115.8,314.5,114.7z"/>
<path class="st0" d="M303,189.8c0-13.3,0-26.1,0-38.9c0.1-11.1-1.5-10,10.2-10c12,0,12,0,12,12.2c0,12,0,24,0,36.8c2,0,3.7,0,5.5,0
	c12.8,0,25.7,0.1,38.5-0.1c4-0.1,5.4,1.3,5.1,5.2c-0.3,3.6-0.3,7.4,0,11c0.5,4.7-1,6.4-6,6.2c-12.5-0.4-25-0.1-37.5-0.1
	c-1.6,0-3.3,0-5.6,0c0,3.6,0,6.9,0,10.2c0,11.5-0.1,23,0.1,34.5c0,3.2-0.9,4.5-4.3,4.4c-4.5-0.2-9-0.2-13.5,0
	c-3.5,0.2-4.6-1.2-4.6-4.7c0.1-12.8,0.1-25.7,0.1-38.5c0-1.8,0-3.6,0-5.9c-13.5,0-26.4,0.1-39.3,0c-10.6-0.1-9.6,1.5-9.6-9.6
	c0-12.7,0-12.7,12.6-12.7C278.5,189.8,290.3,189.8,303,189.8z"/>
</svg>
