<?xml version="1.0" encoding="utf-8"?>
<!-- Generator: Adobe Illustrator 27.5.0, SVG Export Plug-In . SVG Version: 6.00 Build 0)  -->
<svg version="1.1" id="Слой_1" xmlns="http://www.w3.org/2000/svg" xmlns:xlink="http://www.w3.org/1999/xlink" x="0px" y="0px"
	 viewBox="0 0 512 512" style="enable-background:new 0 0 512 512;" xml:space="preserve">
<style type="text/css">
	.st0{fill:url(#SVGID_1_);}
	.st1{fill:url(#SVGID_00000012465923814939964510000003206488488633490337_);}
</style>
<linearGradient id="SVGID_1_" gradientUnits="userSpaceOnUse" x1="100.1133" y1="393.1299" x2="411.9837" y2="393.1299">
	<stop  offset="0" style="stop-color:#7770E9"/>
	<stop  offset="2.721608e-02" style="stop-color:#6F69DD"/>
	<stop  offset="0.1025" style="stop-color:#5E59C2"/>
	<stop  offset="0.1884" style="stop-color:#4F4CAB"/>
	<stop  offset="0.2877" style="stop-color:#44419A"/>
	<stop  offset="0.4091" style="stop-color:#3C3A8E"/>
	<stop  offset="0.5757" style="stop-color:#373687"/>
	<stop  offset="1" style="stop-color:#363585"/>
</linearGradient>
<path class="st0" d="M412,504.1c-0.7-0.5-1.1-0.7-1.5-1c-51.1-36.6-102.2-73.3-153.3-110c-1-0.7-1.6-0.7-2.5,0
	c-49.6,35.6-99.1,71.1-148.7,106.7c-1.9,1.3-3.7,2.7-5.9,3.9c0.1-0.5,0.3-0.9,0.4-1.4c19-59.9,38.1-119.8,57.2-179.6
	c0.4-1.2,0.2-1.8-0.8-2.5c-16.6-12.2-33.2-24.5-49.8-36.8c-0.4-0.3-0.9-0.7-1.2-1.3c36.7,0,73.3,0,110.2,0
	c-11.8,36.8-23.6,73.6-35.4,110.4c0.1,0.1,0.2,0.1,0.2,0.2c0.4-0.3,0.8-0.5,1.1-0.8c24.2-17.3,48.3-34.6,72.5-52
	c1.1-0.8,1.8-0.8,2.8,0c24.2,17.4,48.5,34.7,72.8,52c0.3,0.2,0.7,0.5,1.4,0.9c-12.1-37.1-24-73.8-36-110.7c36.9,0,73.6,0,110.8,0
	c-0.7,0.6-1.2,1-1.7,1.3c-16.5,12.2-33.1,24.5-49.6,36.7c-1.1,0.8-1.2,1.4-0.8,2.7c19.1,59.8,38.1,119.6,57.1,179.4
	C411.6,502.7,411.7,503.2,412,504.1z"/>
<linearGradient id="SVGID_00000139256019944711543700000010868557328485206416_" gradientUnits="userSpaceOnUse" x1="4.0011" y1="136.8916" x2="508.0619" y2="136.8916">
	<stop  offset="0" style="stop-color:#C98989"/>
	<stop  offset="4.661924e-02" style="stop-color:#BC7272"/>
	<stop  offset="0.115" style="stop-color:#AD5757"/>
	<stop  offset="0.1935" style="stop-color:#A14141"/>
	<stop  offset="0.2853" style="stop-color:#973030"/>
	<stop  offset="0.3988" style="stop-color:#912525"/>
	<stop  offset="0.558" style="stop-color:#8D1E1E"/>
	<stop  offset="1" style="stop-color:#8C1C1C"/>
</linearGradient>
<path style="fill:url(#SVGID_00000139256019944711543700000010868557328485206416_);" d="M256.1,161.4c-0.7,2.2-1.5,4.4-2.2,6.6
	c-8.8,26.5-17.7,53.1-26.5,79.6c-0.4,1.3-1,1.6-2.3,1.6c-54,0-107.9,0-161.9,0c-1.5,0-2.7-0.4-3.9-1.3
	c-18.1-13.4-36.1-26.8-54.2-40.1c-0.4-0.3-0.7-0.6-1.1-1.2c0.5,0,1.1,0,1.6,0c62.5,0,125.1,0,187.6,0c2.8,0,2.2,0.4,3-2.1
	c19.7-59.5,39.3-119,59-178.5c0.2-0.6,0.4-1.1,0.9-1.7c0.2,0.6,0.4,1.1,0.6,1.7c19.7,59.6,39.4,119.2,59.1,178.9
	c0.4,1.4,1,1.8,2.5,1.8c62.6,0,125.2,0,187.9,0c0.6,0,1.2,0,1.8,0c0,0.1,0.1,0.2,0.1,0.3c-0.3,0.3-0.6,0.5-1,0.8
	c-18.3,13.6-36.6,27.1-55,40.6c-0.7,0.5-1.7,0.8-2.5,0.8c-54.4,0.1-108.7,0.1-163.1,0.1c-1.1,0-1.6-0.3-2-1.4
	c-9.2-28.4-18.5-56.8-27.7-85.3c-0.1-0.4-0.3-0.8-0.4-1.2C256.3,161.5,256.2,161.4,256.1,161.4z"/>
</svg>
